<?xml version="1.0" encoding="utf-8"?>
<!-- Generator: Adobe Illustrator 25.3.0, SVG Export Plug-In . SVG Version: 6.00 Build 0)  -->
<svg version="1.1" id="Layer_1" xmlns="http://www.w3.org/2000/svg" xmlns:xlink="http://www.w3.org/1999/xlink" x="0px" y="0px"
	 viewBox="0 0 36 36" style="enable-background:new 0 0 36 36;" xml:space="preserve">
<style type="text/css">
	.st0{fill:#FA743E;}
	.st1{fill:#AF7E57;}
	.st2{fill:#9B6A49;}
	.st3{fill:#60352A;}
	.st4{fill:#915A34;}
	.st5{fill:#662113;}
	.st6{fill:#E1E8ED;}
	.st7{fill:#99AAB5;}
</style>
<path class="st0" d="M28,36v-5c0-3.3-2.7-6-6-6H6c-3.3,0-6,2.7-6,6l0,5H28z"/>
<path class="st1" d="M18.4,25.1v-3.8H9.6v3.8c0,0.9,2.4,2,4.4,2S18.4,26,18.4,25.1L18.4,25.1z"/>
<path class="st2" d="M18.4,23.1v-3.5H9.6v3.5c1.2,1.4,2.7,1.7,4.4,1.7C15.7,24.9,17.2,24.5,18.4,23.1L18.4,23.1z"/>
<path class="st3" d="M2.9,10.2c0.3,7.6,3.5,12,10.1,12c3.4,0,5.5,0.1,7.4-2.4c1.3-0.4,3-1.3,3.4-4.3c0.4-2.6,1.4-4.2,0.9-7.7
	c-0.5-3.5-3.9-6.2-6.9-6.2c-1.1-1.5-5.7-1.6-7.6-1C5.4,2.1,2.7,5.6,2.9,10.2z"/>
<path class="st1" d="M5.4,15.5c0,4.6,3.8,8.6,8.6,8.6s8.6-3.9,8.6-8.6c0-1.6,0.1-2.5-0.2-3.6c-0.5-1.5-1.3-2.4-2-2.9
	c-2.5-1.5-2.7-3-2.7-3s-0.5,1.1-2.1,2.1c-2.3,1.5-4.7,0.5-6.8,2.9c-0.5,0.6-0.5,0.1-0.4-0.5c0.1-0.6,0.7-1.7,1.4-2
	c-1.8,0.3-2.6,1-3.3,1.9C5.7,11.5,5.4,12.6,5.4,15.5z"/>
<path class="st4" d="M12.6,17.4c0-0.3,0.2-0.5,0.5-0.5H15c0.3,0,0.5,0.2,0.5,0.5s-0.2,0.5-0.5,0.5H13C12.8,17.9,12.6,17.7,12.6,17.4
	z"/>
<path class="st5" d="M16.9,13.6v-1c0-0.5,0.4-1,1-1s1,0.4,1,1v1c0,0.5-0.4,1-1,1C17.3,14.6,16.9,14.2,16.9,13.6z M9.2,13.6v-1
	c0-0.5,0.4-1,1-1s1,0.4,1,1v1c0,0.5-0.4,1-1,1C9.7,14.6,9.2,14.2,9.2,13.6z"/>
<path class="st4" d="M13.9,21.9c-2.8,0-3.6-0.7-3.7-0.8c-0.3-0.3-0.3-0.7,0-0.9c0.3-0.3,0.7-0.3,0.9,0c0,0,0.6,0.5,2.8,0.5
	c2.1,0,2.8-0.4,2.8-0.5c0.3-0.2,0.7-0.2,0.9,0c0.3,0.3,0.3,0.7,0,0.9C17.5,21.2,16.6,21.9,13.9,21.9"/>
<path class="st6" d="M3,34h10c0.6,0,1,0.4,1,1s-0.4,1-1,1H3c-0.6,0-1-0.4-1-1S2.5,34,3,34z"/>
<path class="st6" d="M12,24.8L8,36h20c2.2,0,2.6-2,2.6-2l3.1-8.5c1-2.8-1-3.5-2.5-3.5H14.8C13.2,22,12.4,23.4,12,24.8z"/>
<path class="st7" d="M13,24.8L9,36h20c2.2,0,2.6-2,2.6-2l3.1-8.5c1-2.8-1-3.5-2.5-3.5H15.8C14.2,22,13.4,23.4,13,24.8z"/>
<path class="st6" d="M23.8,27.1c1,0.3,1.5,1.9,0.9,3.5c-0.5,1.6-1.8,2.6-2.8,2.2c-1-0.3-1.5-1.9-0.9-3.5
	C21.5,27.7,22.8,26.7,23.8,27.1z M15.3,24c0-0.4,0.3-0.8,0.8-0.8h16c0.4,0,0.8,0.3,0.8,0.8s-0.3,0.8-0.8,0.8H16
	C15.6,24.8,15.3,24.4,15.3,24z"/>
</svg>
