<svg id="Layer_1" data-name="Layer 1" xmlns="http://www.w3.org/2000/svg" viewBox="0 0 24 36"><defs><style>.cls-1{fill:#292f33;}.cls-2{fill:#66757f;}.cls-3{fill:#e1e8ed;}.cls-4{fill:red;}.cls-5{fill:lime;}.cls-6{fill:blue;}.cls-7{fill:#fff;}</style></defs><path class="cls-1" d="M24,34a2,2,0,0,1-2,2H2a2,2,0,0,1-2-2V2A2,2,0,0,1,2,0H22a2,2,0,0,1,2,2Z"/><rect class="cls-2" x="2" y="2" width="20" height="32" rx="1"/><rect class="cls-3" x="6" y="10.33" width="12" height="2" rx="0.97"/><rect class="cls-3" x="6" y="15.67" width="12" height="2" rx="0.97"/><rect class="cls-3" x="6" y="21" width="12" height="2" rx="0.97"/><circle class="cls-4" cx="7" cy="6" r="1"/><circle class="cls-5" cx="12.01" cy="6" r="1"/><circle class="cls-6" cx="17" cy="6" r="1"/><path class="cls-7" d="M6.15,26.94H7.36a3.27,3.27,0,0,1,.81.08,1.52,1.52,0,0,1,.61.33,2.31,2.31,0,0,1,.72,1.86,3.55,3.55,0,0,1-.08.76,2,2,0,0,1-.6,1.1,1.45,1.45,0,0,1-.4.26,1.92,1.92,0,0,1-.48.15,4.45,4.45,0,0,1-.56,0H6.17a.74.74,0,0,1-.38-.08.34.34,0,0,1-.17-.22,1.19,1.19,0,0,1,0-.36V27.5a.58.58,0,0,1,.14-.43A.57.57,0,0,1,6.15,26.94Zm.36.73v3.11H7.57a1,1,0,0,0,.28-.07.72.72,0,0,0,.24-.14,1.68,1.68,0,0,0,.47-1.35,2,2,0,0,0-.21-1,.93.93,0,0,0-.5-.43,2.6,2.6,0,0,0-.73-.09Z"/><path class="cls-7" d="M11.52,27.41l1.79,2.7V27.39a.58.58,0,0,1,.11-.4.39.39,0,0,1,.31-.13A.37.37,0,0,1,14,27a.58.58,0,0,1,.12.4V31c0,.4-.17.6-.5.6a.85.85,0,0,1-.23,0,.41.41,0,0,1-.18-.12,1,1,0,0,1-.17-.18l-.15-.21-1.74-2.67v2.68a.58.58,0,0,1-.12.4.39.39,0,0,1-.31.13.41.41,0,0,1-.32-.13.58.58,0,0,1-.12-.4V27.53a1,1,0,0,1,0-.35.5.5,0,0,1,.2-.23.53.53,0,0,1,.3-.09.46.46,0,0,1,.21,0,.42.42,0,0,1,.16.11,1,1,0,0,1,.14.18Z"/><path class="cls-7" d="M18.66,30.14a1.37,1.37,0,0,1-.22.75,1.46,1.46,0,0,1-.62.52,2.48,2.48,0,0,1-1,.18,2.19,2.19,0,0,1-1.12-.25,1.5,1.5,0,0,1-.51-.49,1.14,1.14,0,0,1-.19-.6.39.39,0,0,1,.11-.29.41.41,0,0,1,.3-.12.37.37,0,0,1,.25.09.83.83,0,0,1,.17.28,1.81,1.81,0,0,0,.19.37,1,1,0,0,0,.29.24,1.08,1.08,0,0,0,.48.09,1.07,1.07,0,0,0,.67-.19.59.59,0,0,0,.26-.48.53.53,0,0,0-.14-.37.92.92,0,0,0-.36-.22,5,5,0,0,0-.59-.15,3.9,3.9,0,0,1-.82-.28,1.24,1.24,0,0,1-.53-.42,1.1,1.1,0,0,1-.2-.66,1.11,1.11,0,0,1,.21-.67,1.34,1.34,0,0,1,.6-.46,2.53,2.53,0,0,1,.92-.15,2.2,2.2,0,0,1,.72.1,1.52,1.52,0,0,1,.52.28,1.31,1.31,0,0,1,.29.36.94.94,0,0,1,.1.38.4.4,0,0,1-.12.29.38.38,0,0,1-.29.14.37.37,0,0,1-.25-.08,1.85,1.85,0,0,1-.18-.26,1.2,1.2,0,0,0-.29-.41,1,1,0,0,0-.57-.14,1,1,0,0,0-.58.15.5.5,0,0,0-.22.38.38.38,0,0,0,.08.24.55.55,0,0,0,.2.17,1.59,1.59,0,0,0,.27.12l.44.11a6.75,6.75,0,0,1,.7.2,2.72,2.72,0,0,1,.54.27,1,1,0,0,1,.34.4A1.13,1.13,0,0,1,18.66,30.14Z"/></svg>