<svg id="Layer_1" data-name="Layer 1" xmlns="http://www.w3.org/2000/svg" viewBox="0 0 24 36"><defs><style>.cls-1{fill:#292f33;}.cls-2{fill:#66757f;}.cls-3{fill:#e1e8ed;}.cls-4{fill:red;}.cls-5{fill:lime;}.cls-6{fill:blue;}.cls-7{fill:#fff;}</style></defs><path class="cls-1" d="M24,34a2,2,0,0,1-2,2H2a2,2,0,0,1-2-2V2A2,2,0,0,1,2,0H22a2,2,0,0,1,2,2Z"/><rect class="cls-2" x="2" y="2" width="20" height="32" rx="1"/><rect class="cls-3" x="6" y="10.33" width="12" height="2" rx="0.97"/><rect class="cls-3" x="6" y="15.67" width="12" height="2" rx="0.97"/><rect class="cls-3" x="6" y="21" width="12" height="2" rx="0.97"/><circle class="cls-4" cx="7" cy="6" r="1"/><circle class="cls-5" cx="12.01" cy="6" r="1"/><circle class="cls-6" cx="17" cy="6" r="1"/><path class="cls-7" d="M6.75,30.79,6,28.05l-.75,2.74c-.06.21-.11.36-.14.45a.72.72,0,0,1-.18.25.53.53,0,0,1-.34.1.55.55,0,0,1-.28-.06.39.39,0,0,1-.18-.18A1,1,0,0,1,4,31.07c0-.11,0-.21-.08-.3l-.76-3.08a2.31,2.31,0,0,1-.07-.41.42.42,0,0,1,.13-.3.43.43,0,0,1,.31-.12.35.35,0,0,1,.34.16,1.73,1.73,0,0,1,.15.47l.6,2.68.67-2.51a3.64,3.64,0,0,1,.14-.43A.61.61,0,0,1,5.64,27,.53.53,0,0,1,6,26.86a.55.55,0,0,1,.36.11.59.59,0,0,1,.18.25c0,.09.08.24.14.44l.67,2.51L8,27.49a2.43,2.43,0,0,1,.09-.33A.46.46,0,0,1,8.18,27a.39.39,0,0,1,.28-.09.45.45,0,0,1,.31.12.41.41,0,0,1,.12.3,1.8,1.8,0,0,1-.07.41l-.76,3.08a3.65,3.65,0,0,1-.13.46.62.62,0,0,1-.17.26.54.54,0,0,1-.35.1.52.52,0,0,1-.52-.34C6.86,31.16,6.81,31,6.75,30.79Z"/><path class="cls-7" d="M12.75,30.79,12,28.05l-.75,2.74a4.31,4.31,0,0,1-.14.45.53.53,0,0,1-.18.25.51.51,0,0,1-.34.1.58.58,0,0,1-.28-.06.39.39,0,0,1-.18-.18,1,1,0,0,1-.11-.28c0-.11-.06-.21-.08-.3l-.76-3.08a1.64,1.64,0,0,1-.07-.41.41.41,0,0,1,.12-.3.45.45,0,0,1,.31-.12.35.35,0,0,1,.34.16,1.73,1.73,0,0,1,.15.47l.61,2.68.67-2.51a4,4,0,0,1,.13-.43.63.63,0,0,1,.2-.26.5.5,0,0,1,.36-.11.53.53,0,0,1,.36.11.59.59,0,0,1,.18.25c0,.09.08.24.14.44l.68,2.51.6-2.68a2.68,2.68,0,0,1,.08-.33.57.57,0,0,1,.13-.21.41.41,0,0,1,.28-.09.45.45,0,0,1,.31.12.42.42,0,0,1,.13.3,2.64,2.64,0,0,1-.07.41l-.77,3.08a3.65,3.65,0,0,1-.13.46.62.62,0,0,1-.17.26.52.52,0,0,1-.35.1.53.53,0,0,1-.34-.1.59.59,0,0,1-.18-.24C12.86,31.16,12.81,31,12.75,30.79Z"/><path class="cls-7" d="M18.75,30.79,18,28.05l-.75,2.74a2.74,2.74,0,0,1-.14.45.59.59,0,0,1-.17.25.54.54,0,0,1-.35.1.61.61,0,0,1-.28-.06.52.52,0,0,1-.18-.18,1.49,1.49,0,0,1-.11-.28c0-.11-.06-.21-.08-.3l-.76-3.08a1.64,1.64,0,0,1-.07-.41.38.38,0,0,1,.13-.3.41.41,0,0,1,.3-.12.36.36,0,0,1,.35.16,2.92,2.92,0,0,1,.15.47l.6,2.68.67-2.51c.05-.19.1-.33.13-.43a.63.63,0,0,1,.2-.26.52.52,0,0,1,.36-.11.58.58,0,0,1,.37.11.83.83,0,0,1,.18.25c0,.09.08.24.13.44l.68,2.51.6-2.68c0-.14.06-.25.08-.33a.49.49,0,0,1,.14-.21.37.37,0,0,1,.27-.09.43.43,0,0,1,.31.12.38.38,0,0,1,.13.3,1.8,1.8,0,0,1-.07.41l-.76,3.08-.13.46a.76.76,0,0,1-.18.26.52.52,0,0,1-.35.1.53.53,0,0,1-.34-.1.56.56,0,0,1-.17-.24A3.52,3.52,0,0,1,18.75,30.79Z"/></svg>